<?xml version="1.0" encoding="UTF-8"?>
<svg id="Layer_4" data-name="Layer 4" xmlns="http://www.w3.org/2000/svg" viewBox="0 0 1080 1080">
  <defs>
    <style>
      .cls-1 {
        fill: #333;
      }
    </style>
  </defs>
  <path class="cls-1" d="M984.32,261.77c-11.63-6.72-25.96-6.72-37.59,0l-425.53,245.68c-11.63,6.71-18.79,19.12-18.79,32.55v426.25l-350.35-202.27v-447.95l406.73-234.83c17.98-10.38,24.14-33.37,13.76-51.35-10.38-17.98-33.37-24.14-51.35-13.76L95.68,261.77c-11.63,6.71-18.79,19.12-18.79,32.55v491.35c0,13.43,7.16,25.84,18.79,32.55l425.53,245.68c.73.42,1.47.81,2.21,1.18,5.3,2.61,10.95,3.86,16.55,3.86,1.64,0,3.27-.11,4.88-.32.2-.03.4-.07.6-.1.59-.09,1.19-.17,1.77-.29.52-.1,1.03-.23,1.54-.35.27-.06.54-.12.81-.19.47-.12.94-.27,1.41-.42.31-.1.63-.18.94-.28.36-.12.72-.27,1.08-.4.41-.15.83-.3,1.24-.46.25-.1.5-.22.75-.33.51-.22,1.03-.45,1.53-.69.16-.08.32-.17.48-.25.59-.3,1.17-.6,1.75-.93.02,0,.03-.02.05-.03l425.53-245.68c11.63-6.71,18.79-19.12,18.79-32.55v-491.35c0-13.43-7.16-25.84-18.79-32.55ZM927.94,763.98l-350.35,202.27v-404.55l350.35-202.27v404.55Z"/>
</svg>