<svg width="64" height="19" viewBox="0 0 64 19" fill="none" xmlns="http://www.w3.org/2000/svg">
<path d="M3.37924 18.1122H1.26941V15.6376H3.37924C4.15125 15.6362 4.89124 15.334 5.43713 14.7972C5.98303 14.2604 6.29035 13.5327 6.29178 12.7736V11.1362H8.80839V12.7736C8.80911 13.4748 8.66916 14.1694 8.39658 14.8174C8.12399 15.4654 7.72411 16.0543 7.21982 16.5501C6.71554 17.046 6.11675 17.4392 5.45773 17.7073C4.79872 17.9753 4.09241 18.1129 3.37924 18.1122V18.1122Z" fill="#0F197D"/>
<path d="M8.80813 12.8159H4.40406C3.53279 12.8159 2.68109 12.5618 1.95673 12.0857C1.23237 11.6096 0.667894 10.9329 0.334721 10.1413C0.00154741 9.34961 -0.085349 8.47859 0.0850229 7.63838C0.255395 6.79816 0.67538 6.02652 1.29184 5.42108C1.90831 4.81564 2.69354 4.4036 3.5482 4.23711C4.40286 4.07061 5.28855 4.15713 6.09319 4.48573C6.89783 4.81432 7.58528 5.37023 8.06855 6.0831C8.55182 6.79598 8.8092 7.63379 8.80813 8.49054V12.8159ZM4.40406 6.65588C3.92168 6.68133 3.46759 6.88769 3.13528 7.23247C2.80297 7.57724 2.61775 8.03418 2.61775 8.50921C2.61775 8.98423 2.80297 9.44118 3.13528 9.78595C3.46759 10.1307 3.92168 10.3371 4.40406 10.3625H6.29152V8.49054C6.28581 8.00201 6.08444 7.53539 5.73109 7.19192C5.37774 6.84846 4.90091 6.65584 4.40406 6.65588Z" fill="#0F197D"/>
<path d="M20.034 0H17.5065V2.47467H20.034V0Z" fill="#0F197D"/>
<path d="M63.3545 15.6372H60.827V18.1119H63.3545V15.6372Z" fill="#0F197D"/>
<path d="M23.7948 12.8165H21.2836C20.2814 12.8165 19.3198 12.4268 18.6086 11.7324C17.8973 11.0381 17.4942 10.0953 17.487 9.1098V5.37646H20.0036V9.1098C20.0051 9.43611 20.1375 9.74866 20.3722 9.9794C20.6068 10.2101 20.9247 10.3404 21.2565 10.3418H23.7677C24.0996 10.3404 24.4174 10.2101 24.6521 9.9794C24.8867 9.74866 25.0192 9.43611 25.0206 9.1098V5.37646H27.5372V9.1098C27.5302 10.0861 27.1345 11.0209 26.435 11.7138C25.7354 12.4067 24.7876 12.8025 23.7948 12.8165V12.8165Z" fill="#0F197D"/>
<path d="M45.0689 12.8165C44.0666 12.8165 43.1051 12.4268 42.3938 11.7324C41.6826 11.0381 41.2794 10.0953 41.2723 9.1098V5.37646H43.7889V9.1098C43.7903 9.43611 43.9228 9.74866 44.1574 9.9794C44.3921 10.2101 44.7099 10.3404 45.0418 10.3418L45.0689 12.8165Z" fill="#0F197D"/>
<path d="M39.9518 12.8165H33.6765C32.679 12.8095 31.7243 12.4167 31.0189 11.7231C30.3136 11.0295 29.9141 10.0907 29.907 9.1098V5.37646H32.4237V9.1098C32.4237 9.43654 32.5556 9.74991 32.7906 9.98096C33.0256 10.212 33.3442 10.3418 33.6765 10.3418H39.9518C40.2831 10.3404 40.6004 10.21 40.8342 9.97908C41.068 9.74818 41.1992 9.43562 41.1992 9.1098V5.37646H43.7159V9.1098C43.7088 10.0898 43.3101 11.0278 42.6059 11.7212C41.9017 12.4147 40.9484 12.8081 39.9518 12.8165Z" fill="#0F197D"/>
<path d="M16.3346 12.8165H7.54814V10.3418H16.3346C16.5 10.3432 16.6641 10.3124 16.8174 10.2511C16.9706 10.1898 17.11 10.0993 17.2275 9.98475C17.345 9.8702 17.4383 9.73391 17.5019 9.58374C17.5656 9.43357 17.5983 9.27249 17.5983 9.1098V5.37646H20.1149V9.1098C20.1078 10.0925 19.7069 11.0329 18.9992 11.7268C18.2914 12.4207 17.334 12.8123 16.3346 12.8165V12.8165Z" fill="#0F197D"/>
<path d="M26.3333 18.1124V15.6377C27.2808 15.6363 28.1891 15.2655 28.8591 14.6067C29.529 13.9479 29.9061 13.0548 29.9075 12.123V5.39771H32.4241V12.123C32.4213 13.7106 31.7786 15.2324 30.637 16.355C29.4953 17.4776 27.9478 18.1096 26.3333 18.1124V18.1124Z" fill="#0F197D"/>
<path d="M25.0307 15.6372H20.0354V18.1119H25.0307V15.6372Z" fill="#0F197D"/>
<path d="M42.4632 0H34.9296V2.47467H42.4632V0Z" fill="#0F197D"/>
<path d="M52.5655 16.9755H52.0231C51.0209 16.9684 50.0622 16.572 49.356 15.8726C48.6499 15.1732 48.2536 14.2277 48.2536 13.2421V12.7888H45.0482V10.3408H48.2536V5.3968C48.3644 4.49031 48.8091 3.65517 49.5037 3.04931C50.1983 2.44345 51.0946 2.10889 52.0231 2.10889C52.9516 2.10889 53.8479 2.44345 54.5425 3.04931C55.2371 3.65517 55.6818 4.49031 55.7926 5.3968V6.71413C55.7905 8.12997 55.2886 9.50116 54.3725 10.5935C53.4565 11.6859 52.1833 12.4317 50.7702 12.7035V13.2688C50.7702 13.5188 50.8475 13.7628 50.9918 13.9686C51.1361 14.1743 51.3407 14.3321 51.5784 14.4208L54.3933 11.6528C54.8193 11.2318 55.3267 10.8988 55.8856 10.6735C56.4445 10.4481 57.0435 10.335 57.6475 10.3408H59.5892C59.9205 10.3394 60.2378 10.209 60.4716 9.97807C60.7054 9.74718 60.8367 9.43462 60.8367 9.1088V5.37547H63.3533V9.1088C63.3462 10.0888 62.9475 11.0268 62.2433 11.7202C61.5391 12.4137 60.5858 12.8071 59.5892 12.8155H57.6475C57.3795 12.8144 57.1139 12.8657 56.8663 12.9664C56.6186 13.0671 56.3938 13.2152 56.2048 13.4021L52.5655 16.9755ZM52.0231 4.17547C51.6918 4.17546 51.3739 4.30453 51.1391 4.53442C50.9043 4.76431 50.7717 5.07631 50.7702 5.40213V10.1541C51.5002 9.91036 52.1342 9.44811 52.5836 8.83218C53.0329 8.21625 53.275 7.4775 53.276 6.71946V5.3968C53.2746 5.07464 53.145 4.76582 52.9148 4.53653C52.6847 4.30724 52.3724 4.17571 52.0448 4.17013L52.0231 4.17547Z" fill="#0F197D"/>
</svg>
